<svg width="17" height="17" viewBox="0 0 17 17" fill="none" xmlns="http://www.w3.org/2000/svg">
<path d="M8.06908 0.162354C3.60005 0.162354 0 3.76241 0 8.23144C0 12.7005 3.60005 16.3005 8.06908 16.3005C12.5381 16.3005 16.1382 12.7005 16.1382 8.23144C16.1382 3.76241 12.5381 0.162354 8.06908 0.162354ZM12.1657 6.61762L7.44839 11.8315C7.32425 11.9556 7.07597 11.9556 6.95183 11.9556C6.82769 11.9556 6.57941 11.8315 6.45527 11.8315L3.97247 9.3487C3.72419 9.10042 3.72419 8.728 3.97247 8.47972C4.22075 8.23144 4.59317 8.23144 4.84145 8.47972L6.82769 10.466L11.1726 5.74864C11.4209 5.50036 11.7933 5.50036 12.0416 5.74864C12.414 5.99692 12.414 6.36934 12.1657 6.61762Z" fill="#FAD16F"/>
</svg>
